<svg xmlns="http://www.w3.org/2000/svg" version="1.1" xmlns:xlink="http://www.w3.org/1999/xlink" xmlns:svgjs="http://svgjs.dev/svgjs" width="1500" height="1500" viewBox="0 0 1500 1500"><rect width="1500" height="1500" fill="#000000"></rect><g transform="matrix(0.6666666666666666,0,0,0.6666666666666666,249.39393939393943,572.991308181247)"><svg viewBox="0 0 396 140" data-background-color="#f6efd1" preserveAspectRatio="xMidYMid meet" height="530" width="1500" xmlns="http://www.w3.org/2000/svg" xmlns:xlink="http://www.w3.org/1999/xlink"><g id="tight-bounds" transform="matrix(1,0,0,1,0.2400000000000091,0.1355193998833215)"><svg viewBox="0 0 395.52 139.72877980504026" height="139.72877980504026" width="395.52"><g><svg viewBox="0 0 691.8939079128254 244.43135999999998" height="139.72877980504026" width="395.52"><g transform="matrix(1,0,0,1,296.3739079128254,78.21074268081003)"><svg viewBox="0 0 395.52 88.00987463837994" height="88.00987463837994" width="395.52"><g id="textblocktransform"><svg viewBox="0 0 395.52 88.00987463837994" height="88.00987463837994" width="395.52" id="textblock"><g><svg viewBox="0 0 395.52 88.00987463837994" height="88.00987463837994" width="395.52"><g transform="matrix(1,0,0,1,0,0)"><svg width="395.52" viewBox="2.1499999999999995 -32.35 207.38 46.150000000000006" height="88.00987463837994" data-palette-color="#672109"><path d="M5.6 0.5L5.6 0.5Q5 0.5 4.38 0.3 3.75 0.1 3.35-0.65 2.95-1.4 2.95-2.95L2.95-2.95Q2.95-4.2 3.18-6.13 3.4-8.05 3.75-10.25L3.75-10.25Q4.1-12.5 4.33-15 4.55-17.5 4.55-20.05L4.55-20.05Q4.55-21.05 4.5-22.2 4.45-23.35 4.3-24.45L4.3-24.45Q3.95-24.25 3.63-24.13 3.3-24 3-24L3-24Q2.15-24 2.15-25.65L2.15-25.65Q2.15-27.15 2.83-28.18 3.5-29.2 5.3-30.15L5.3-30.15Q7.05-31.1 9.43-31.73 11.8-32.35 14.25-32.35L14.25-32.35Q19.1-32.35 22.03-29.8 24.95-27.25 24.95-23L24.95-23Q24.95-20.4 23.9-18.2 22.85-16 21.13-14.38 19.4-12.75 17.38-11.88 15.35-11 13.4-11L13.4-11Q11.55-11 10.9-11.83 10.25-12.65 10.25-14.2L10.25-14.2Q10.25-14.95 10.43-15.58 10.6-16.2 11.2-16.2L11.2-16.2Q11.35-16.2 11.65-16.15 11.95-16.1 12.25-16L12.25-16Q12.55-15.95 13.1-15.85 13.65-15.75 14.35-15.75L14.35-15.75Q17.1-15.75 18.82-17.3 20.55-18.85 20.55-21.3L20.55-21.3Q20.55-23.85 18.65-25.3 16.75-26.75 13.75-26.75L13.75-26.75Q12.65-26.75 11.5-26.58 10.35-26.4 9.2-26.1L9.2-26.1Q9.05-22.8 8.5-18.6L8.5-18.6Q8.2-16.1 7.98-13.68 7.75-11.25 7.75-9.25L7.75-9.25Q7.75-7.5 8.08-6.18 8.4-4.85 9.4-3.9L9.4-3.9Q10.1-3.2 10.1-2.4L10.1-2.4Q10.1-1.3 8.85-0.4 7.6 0.5 5.6 0.5ZM30.25 0.65L30.25 0.65Q27.25 0.65 25.42-1.23 23.6-3.1 23.6-6.6L23.6-6.6Q23.6-9.1 24.57-11.58 25.55-14.05 27.4-16.05 29.25-18.05 31.85-19.25 34.45-20.45 37.7-20.45L37.7-20.45Q40.7-20.45 42.82-19.43 44.95-18.4 44.95-16.65L44.95-16.65Q44.95-16.2 44.85-15.48 44.75-14.75 44.6-14.3L44.6-14.3Q44.45-13.9 44.17-13.58 43.9-13.25 43.45-13.25L43.45-13.25Q43.25-13.25 42.7-13.4L42.7-13.4Q42.5-12.35 42.4-11.35 42.3-10.35 42.3-9.35L42.3-9.35Q42.3-7.45 42.87-5.98 43.45-4.5 45.15-4.15L45.15-4.15Q45.6-4.05 45.87-3.85 46.15-3.65 46.15-3L46.15-3Q46.15-2.45 45.87-1.6 45.6-0.75 44.82-0.08 44.05 0.6 42.6 0.6L42.6 0.6Q40.65 0.6 39.6-0.83 38.55-2.25 38.55-4.9L38.55-4.9Q37.2-2.45 35.12-0.9 33.05 0.65 30.25 0.65ZM31.85-4.55L31.85-4.55Q33.85-4.55 35.37-5.8 36.9-7.05 37.75-8.95L37.75-8.95Q38.3-10.15 38.6-11.58 38.9-13 39-14.4L39-14.4Q38.15-14.8 37.05-15.05 35.95-15.3 34.75-15.3L34.75-15.3Q31.7-15.3 29.72-13.5 27.75-11.7 27.75-9L27.75-9Q27.75-7 28.85-5.78 29.95-4.55 31.85-4.55ZM52.25 0.55L52.25 0.55Q51.45 0.55 50.97 0.28 50.5 0 50.65-0.65L50.65-0.65Q51.2-2.8 51.57-5.03 51.95-7.25 51.95-9.3L51.95-9.3Q51.95-11.95 51.62-13.18 51.3-14.4 50.75-14.88 50.2-15.35 49.4-15.6L49.4-15.6Q49.05-15.75 48.77-16 48.5-16.25 48.5-16.7L48.5-16.7Q48.5-17.4 49.05-18.25 49.6-19.1 50.6-19.73 51.6-20.35 52.9-20.35L52.9-20.35Q54.6-20.35 55.27-19.18 55.95-18 55.95-16.1L55.95-16.1Q56.85-18.1 58.17-19.28 59.5-20.45 61.5-20.45L61.5-20.45Q62.85-20.45 63.75-19.85 64.65-19.25 64.65-17.9L64.65-17.9Q64.65-16.55 63.77-15.38 62.9-14.2 62-14.2L62-14.2Q61.85-14.2 61.65-14.25 61.45-14.3 61.3-14.5L61.3-14.5Q60.65-15.3 59.7-15.3L59.7-15.3Q58.25-15.3 57.15-13.4 56.05-11.5 55.95-8.15L55.95-8.15Q56-6.9 56.02-5.6 56.05-4.3 56.05-3.7L56.05-3.7Q56.05-1.85 55.02-0.65 54 0.55 52.25 0.55ZM73.19 0.65L73.19 0.65Q70.14 0.65 68.82-1.38 67.49-3.4 67.49-6.6L67.49-6.6Q67.49-7.75 67.62-8.85 67.74-9.95 67.89-11.05L67.89-11.05Q68.04-12.15 68.19-13.2 68.34-14.25 68.44-15.2L68.44-15.2Q67.39-14.9 66.34-14.9L66.34-14.9Q65.24-14.9 65.24-15.8L65.24-15.8Q65.24-16.75 66.09-18.13 66.94-19.5 68.22-20.85 69.49-22.2 70.77-23.13 72.04-24.05 72.94-24.05L72.94-24.05Q74.04-24.05 74.04-22.15L74.04-22.15Q74.04-21.65 73.97-21.13 73.89-20.6 73.79-20.05L73.79-20.05Q74.74-20.25 75.72-20.4 76.69-20.55 77.59-20.55L77.59-20.55Q78.74-20.55 79.37-20.15 79.99-19.75 79.99-18.6L79.99-18.6Q79.99-17.4 79.42-16.2 78.84-15 78.14-15L78.14-15Q77.99-15 77.64-15.05 77.29-15.1 76.79-15.2L76.79-15.2Q76.14-15.35 75.14-15.5 74.14-15.65 72.74-15.65L72.74-15.65Q72.39-14.1 72.12-12.48 71.84-10.85 71.84-9.55L71.84-9.55Q71.84-6.65 73.29-5.6 74.74-4.55 77.49-4.55L77.49-4.55Q78.34-4.55 78.69-4.28 79.04-4 79.04-3.3L79.04-3.3Q79.04-1.65 77.34-0.5 75.64 0.65 73.19 0.65ZM84.04 13.8L84.04 13.8Q81.99 13.8 80.52 12.7 79.04 11.6 79.04 9.75L79.04 9.75Q79.04 8.3 79.92 7.28 80.79 6.25 82.09 6.25L82.09 6.25Q82.69 6.25 82.94 6.45 83.19 6.65 83.34 6.9L83.34 6.9Q83.74 7.55 84.27 8.03 84.79 8.5 85.69 8.5L85.69 8.5Q86.89 8.5 88.02 7.65 89.14 6.8 90.09 5.7L90.09 5.7Q90.94 4.75 92.14 2.98 93.34 1.2 94.54-1.05L94.54-1.05Q93.44-0.1 92.49 0.33 91.54 0.75 90.69 0.75L90.69 0.75Q89.64 0.75 88.64-0.03 87.64-0.8 87.39-2.95L87.39-2.95Q87.24-4.6 86.82-6.6 86.39-8.6 85.77-10.48 85.14-12.35 84.24-13.65L84.24-13.65Q83.89-14.25 83.44-14.55 82.99-14.85 82.14-14.95L82.14-14.95Q81.54-15 81.37-15.3 81.19-15.6 81.19-16.25L81.19-16.25Q81.19-18.05 82.19-19.15 83.19-20.25 84.89-20.25L84.89-20.25Q86.94-20.25 87.84-18.68 88.74-17.1 89.39-14.85L89.39-14.85Q89.64-13.95 89.92-12.48 90.19-11 90.42-9.3 90.64-7.6 90.74-6.05L90.74-6.05Q90.79-4.95 91.99-4.95L91.99-4.95Q93.59-4.95 95.04-5.95 96.49-6.95 97.42-8.55 98.34-10.15 98.34-11.9L98.34-11.9Q98.34-12.9 98.09-13.7 97.84-14.5 97.24-15.1L97.24-15.1Q96.74-15.7 96.44-16.07 96.14-16.45 96.14-16.95L96.14-16.95Q96.14-17.8 96.94-18.55 97.74-19.3 98.87-19.8 99.99-20.3 100.84-20.3L100.84-20.3Q102.34-20.3 102.84-18.88 103.34-17.45 103.09-15.75L103.09-15.75Q102.79-13.4 101.89-10.2 100.99-7 99.57-3.5 98.14 0 96.32 3.28 94.49 6.55 92.44 9L92.44 9Q90.69 11.15 88.54 12.48 86.39 13.8 84.04 13.8ZM128.04 0.5L128.04 0.5Q127.44 0.5 126.81 0.3 126.19 0.1 125.79-0.65 125.39-1.4 125.39-2.95L125.39-2.95Q125.39-4.05 125.56-5.65 125.74-7.25 126.04-9.1L126.04-9.1Q126.44-11.6 126.71-14.38 126.99-17.15 126.99-20.05L126.99-20.05Q126.99-22.4 126.76-24.13 126.54-25.85 126.19-26.8L126.19-26.8Q124.29-26.75 122.59-26.55 120.89-26.35 119.14-25.9L119.14-25.9Q118.69-25.85 118.36-25.78 118.04-25.7 117.74-25.7L117.74-25.7Q117.29-25.7 117.09-25.88 116.89-26.05 116.89-26.75L116.89-26.75Q116.89-27.6 117.14-28.53 117.39-29.45 117.89-30.1L117.89-30.1Q118.39-30.8 119.06-31.13 119.74-31.45 120.54-31.55L120.54-31.55Q121.79-31.7 123.74-31.83 125.69-31.95 128.01-32.05 130.34-32.15 132.59-32.15L132.59-32.15Q136.24-32.15 137.81-32.1 139.39-32.05 139.94-31.95L139.94-31.95Q140.64-31.85 140.91-31.53 141.19-31.2 141.19-30.5L141.19-30.5Q141.19-29.15 139.99-27.8L139.99-27.8Q139.49-27.2 138.94-26.88 138.39-26.55 137.49-26.6L137.49-26.6Q136.69-26.7 135.14-26.75 133.59-26.8 131.69-26.8L131.69-26.8Q131.64-25.05 131.41-22.73 131.19-20.4 130.89-18.05L130.89-18.05Q130.59-15.75 130.39-13.45 130.19-11.15 130.19-9.25L130.19-9.25Q130.19-7.5 130.51-6.18 130.84-4.85 131.84-3.9L131.84-3.9Q132.54-3.2 132.54-2.4L132.54-2.4Q132.54-1.3 131.29-0.4 130.04 0.5 128.04 0.5ZM145.13-24.85L145.13-24.85Q143.73-24.9 142.88-25.7 142.03-26.5 142.03-27.95L142.03-27.95Q142.08-29.5 143.08-30.48 144.08-31.45 145.63-31.4L145.63-31.4Q147.08-31.35 147.91-30.55 148.73-29.75 148.68-28.3L148.68-28.3Q148.63-26.8 147.68-25.83 146.73-24.85 145.13-24.85ZM145.18 0.5L145.18 0.5Q143.68 0.5 142.83-0.33 141.98-1.15 141.98-3.15L141.98-3.15Q141.98-4.3 142.21-5.4 142.43-6.5 142.73-7.55L142.73-7.55Q143.08-8.65 143.31-9.8 143.53-10.95 143.53-12.25L143.53-12.25Q143.53-13.15 143.28-13.98 143.03-14.8 142.18-15.2L142.18-15.2Q141.53-15.55 141.06-15.93 140.58-16.3 140.58-16.9L140.58-16.9Q140.58-17.6 141.23-18.4 141.88-19.2 142.96-19.78 144.03-20.35 145.18-20.35L145.18-20.35Q146.43-20.35 147.01-19.7 147.58-19.05 147.78-18.05 147.98-17.05 147.98-16L147.98-16Q147.98-14.4 147.73-12.88 147.48-11.35 147.23-10.05L147.23-10.05Q147.03-9.1 146.93-8.3 146.83-7.5 146.83-6.8L146.83-6.8Q146.83-5.55 147.43-4.93 148.03-4.3 149.13-3.75L149.13-3.75Q149.58-3.5 149.58-3L149.58-3Q149.58-2.6 149.18-1.75 148.78-0.9 147.81-0.2 146.83 0.5 145.18 0.5ZM156.13 0.55L156.13 0.55Q154.33 0.55 154.53-0.65L154.53-0.65Q155.08-2.8 155.46-5.03 155.83-7.25 155.83-9.3L155.83-9.3Q155.83-11.95 155.51-13.18 155.18-14.4 154.63-14.88 154.08-15.35 153.28-15.6L153.28-15.6Q152.93-15.75 152.66-16 152.38-16.25 152.38-16.7L152.38-16.7Q152.38-17.4 152.93-18.25 153.48-19.1 154.51-19.73 155.53-20.35 156.83-20.35L156.83-20.35Q158.53-20.35 159.18-19.18 159.83-18 159.83-16.1L159.83-16.1Q159.83-14.85 159.58-13.3 159.33-11.75 159.08-10.5L159.08-10.5 159.18-10.45Q159.98-13.1 161.16-15.35 162.33-17.6 164.01-19 165.68-20.4 167.88-20.4L167.88-20.4Q170.13-20.4 171.43-18.88 172.73-17.35 172.73-14.4L172.73-14.4 172.73-13.3Q174.18-16.35 176.26-18.4 178.33-20.45 181.28-20.45L181.28-20.45Q183.68-20.45 185.03-18.85 186.38-17.25 186.38-14.85L186.38-14.85Q186.38-13.9 186.18-13.03 185.98-12.15 185.73-11.3L185.73-11.3Q185.53-10.5 185.33-9.65 185.13-8.8 185.13-7.95L185.13-7.95Q185.13-4.95 187.68-4.05L187.68-4.05Q188.03-3.9 188.23-3.73 188.43-3.55 188.43-3.1L188.43-3.1Q188.43-2.65 188.16-1.8 187.88-0.95 187.08-0.23 186.28 0.5 184.78 0.5L184.78 0.5Q182.83 0.5 181.78-0.93 180.73-2.35 180.73-4.55L180.73-4.55Q180.73-5.65 180.93-6.85 181.13-8.05 181.43-9.15L181.43-9.15Q181.68-10.15 181.86-11.05 182.03-11.95 182.03-12.6L182.03-12.6Q182.03-13.8 181.46-14.35 180.88-14.9 179.93-14.9L179.93-14.9Q178.33-14.9 177.06-13.9 175.78-12.9 174.81-11.3 173.83-9.7 173.13-7.8L173.13-7.8Q173.18-7.35 173.21-6.63 173.23-5.9 173.23-5.35L173.23-5.35Q173.23-4.4 173.11-3.35 172.98-2.3 172.63-1.6L172.63-1.6Q172.23-0.65 171.46-0.05 170.68 0.55 169.38 0.55L169.38 0.55Q168.83 0.55 168.33 0.33 167.83 0.1 167.83-0.4L167.83-0.4Q167.83-0.6 168.13-2.18 168.43-3.75 168.73-6.05 169.03-8.35 169.03-10.55L169.03-10.55Q169.03-12.95 168.53-13.88 168.03-14.8 167.03-14.8L167.03-14.8Q165.78-14.8 164.66-13.75 163.53-12.7 162.61-11.05 161.68-9.4 161.01-7.6 160.33-5.8 159.93-4.25L159.93-4.25 159.93-3.7Q159.93-1.85 158.91-0.65 157.88 0.55 156.13 0.55ZM199.48 0.65L199.48 0.65Q195.68 0.65 193.55-1.53 191.43-3.7 191.43-7.6L191.43-7.6Q191.43-11.15 192.98-14.05 194.53-16.95 197.15-18.68 199.78-20.4 202.93-20.4L202.93-20.4Q205.93-20.4 207.73-18.93 209.53-17.45 209.53-15L209.53-15Q209.53-13.05 208.33-11.4 207.13-9.75 205.13-8.78 203.13-7.8 200.68-7.8L200.68-7.8Q197.68-7.8 195.78-9.15L195.78-9.15Q195.83-6.85 197.35-5.45 198.88-4.05 201.28-4.05L201.28-4.05Q202.73-4.05 204.25-4.58 205.78-5.1 206.88-6L206.88-6Q207.58-6.6 208.18-6.6L208.18-6.6Q208.68-6.6 209-6.28 209.33-5.95 209.33-5.45L209.33-5.45Q209.33-4.35 207.43-2.55L207.43-2.55Q204.08 0.65 199.48 0.65ZM200.23-11.1L200.23-11.1Q202.03-11.1 203.23-11.85 204.43-12.6 204.43-13.75L204.43-13.75Q204.43-14.7 203.63-15.23 202.83-15.75 201.43-15.75L201.43-15.75Q199.58-15.75 198.2-14.78 196.83-13.8 196.23-12.05L196.23-12.05Q196.93-11.6 198.03-11.35 199.13-11.1 200.23-11.1Z" opacity="1" transform="matrix(1,0,0,1,0,0)" fill="#ffffff" class="wordmark-text-0" data-fill-palette-color="primary" id="text-0"></path></svg></g></svg></g></svg></g></svg></g><g><svg viewBox="0 0 244.43135999999998 244.43135999999998" height="244.43135999999998" width="244.43135999999998"><g><svg viewBox="0 0 244.43135999999998 244.43135999999998" height="244.43135999999998" width="244.43135999999998"><g transform="matrix(1,0,0,1,65.53192077019975,64.60265593644992)"><svg viewBox="0 0 113.3675184596005 115.22604812710014" height="115.22604812710014" width="113.3675184596005"><g><svg xmlns="http://www.w3.org/2000/svg" xmlns:xlink="http://www.w3.org/1999/xlink" version="1.1" x="0" y="0" viewBox="1.07 1 61 62.00002462131936" style="enable-background:new 0 0 64 64;" xml:space="preserve" height="115.22604812710014" width="113.3675184596005" class="icon-dxe-0" data-fill-palette-color="accent" id="dxe-0"><path d="M45.07 57.764V26A1 1 0 0 0 44.07 25H22.07A1 1 0 0 0 21.07 26V28H17.07C14.442 28 12.304 30.045 12.108 32.624L9.777 30.293A1 1 0 0 0 9.07 30H5.07A1 1 0 0 0 4.363 30.293L2.656 32H1.07V34H3.07A1 1 0 0 0 3.777 33.707L5.484 32H8.656L10.656 34H7.07V36H14.07C15.724 36 17.07 37.346 17.07 39V50C17.07 51.654 15.724 53 14.07 53H1.07V55H12.171A5.01 5.01 0 0 0 17.07 59H20.503C20.197 59.854 20.269 60.791 20.754 61.577A2.98 2.98 0 0 0 23.306 63H42.833A2.98 2.98 0 0 0 45.386 61.577C45.936 60.686 45.986 59.595 45.517 58.658zM14.07 33C14.07 31.346 15.416 30 17.07 30H21.07V32H18.07C16.967 32 16.07 32.897 16.07 34V34.424A5 5 0 0 0 14.07 34zM18.044 36H18.07V34H21.07V53H18.044A4.95 4.95 0 0 0 19.07 50V39C19.07 37.87 18.679 36.838 18.044 36M14.249 54.982A4.94 4.94 0 0 0 16.568 54.306 2 2 0 0 0 18.07 55H21.07V57H17.07A2.99 2.99 0 0 1 14.249 54.982M32.07 32C30.416 32 29.07 33.346 29.07 35V38A1.001 1.001 0 0 1 27.07 38V27H40.07V28C40.07 28.551 39.622 29 39.07 29H38.07A1 1 0 0 0 37.07 30V43A1.001 1.001 0 0 1 35.07 43V35C35.07 33.346 33.724 32 32.07 32M43.684 60.525A0.98 0.98 0 0 1 42.834 61H23.306A0.99 0.99 0 0 1 22.455 60.525 0.98 0.98 0 0 1 22.411 59.552L22.964 58.447C23.033 58.308 23.07 58.155 23.07 58V27H25.07V38C25.07 39.654 26.416 41 28.07 41S31.07 39.654 31.07 38V35A1.001 1.001 0 0 1 33.07 35V43C33.07 44.654 34.416 46 36.07 46S39.07 44.654 39.07 43V31C40.724 31 42.07 29.654 42.07 28V27H43.07V58C43.07 58.155 43.106 58.309 43.175 58.447L43.728 59.552A0.98 0.98 0 0 1 43.684 60.525" fill="#ffffff" data-fill-palette-color="accent"></path><path d="M28.07 43C26.416 43 25.07 44.346 25.07 46V48C25.07 49.654 26.416 51 28.07 51S31.07 49.654 31.07 48V46C31.07 44.346 29.724 43 28.07 43M29.07 48A1.001 1.001 0 0 1 27.07 48V46A1.001 1.001 0 0 1 29.07 46z" fill="#ffffff" data-fill-palette-color="accent"></path><path d="M5.289 18.625A1 1 0 0 0 6.927 18.515L9.338 14.496 13.444 17.781A1 1 0 0 0 14.964 17.448L17.457 12.461 22.515 15.833A0.998 0.998 0 0 0 24.069 15.001V9.153L29.927 9.99A0.997 0.997 0 0 0 30.987 8.607L28.029 1.706A6 6 0 0 0 28.07 1H26.07C26.07 6.962 14.622 12 1.07 12V14C1.243 14 1.412 13.995 1.584 13.994zM5.953 16.252L4.088 13.921A56 56 0 0 0 7.521 13.638zM13.729 15.446L10.855 13.147A43 43 0 0 0 15.418 12.068zM18.73 10.905A26 26 0 0 0 22.07 9.259V13.132zM27.078 4.556L28.45 7.758 24.857 7.245C25.795 6.404 26.538 5.503 27.078 4.556" fill="#ffffff" data-fill-palette-color="accent"></path><path d="M41.07 19H43.07C43.07 15.14 46.211 12 50.07 12V10C45.107 10 41.07 14.038 41.07 19" fill="#ffffff" data-fill-palette-color="accent"></path><path d="M28.07 16C31.379 16 34.07 18.691 34.07 22H36.07C36.07 17.589 32.481 14 28.07 14z" fill="#ffffff" data-fill-palette-color="accent"></path><path d="M44.07 4V2C39.659 2 36.07 5.589 36.07 10H38.07C38.07 6.691 40.761 4 44.07 4" fill="#ffffff" data-fill-palette-color="accent"></path><path d="M57.07 14C59.276 14 61.07 12.206 61.07 10S59.276 6 57.07 6 53.07 7.794 53.07 10 54.864 14 57.07 14M57.07 8C58.172 8 59.07 8.897 59.07 10S58.172 12 57.07 12C55.967 12 55.07 11.103 55.07 10S55.967 8 57.07 8" fill="#ffffff" data-fill-palette-color="accent"></path><path d="M49.07 8C50.724 8 52.07 6.654 52.07 5S50.724 2 49.07 2 46.07 3.346 46.07 5 47.416 8 49.07 8M49.07 4A1.001 1.001 0 0 1 49.07 6 1.001 1.001 0 0 1 49.07 4" fill="#ffffff" data-fill-palette-color="accent"></path><path d="M56.07 24.5C56.07 22.019 54.051 20 51.57 20S47.07 22.019 47.07 24.5 49.089 29 51.57 29 56.07 26.981 56.07 24.5M49.07 24.5C49.07 23.122 50.191 22 51.57 22S54.07 23.122 54.07 24.5 52.949 27 51.57 27A2.503 2.503 0 0 1 49.07 24.5" fill="#ffffff" data-fill-palette-color="accent"></path><path d="M53.07 37.5C53.07 39.43 54.64 41 56.57 41S60.07 39.43 60.07 37.5 58.5 34 56.57 34 53.07 35.57 53.07 37.5M58.07 37.5C58.07 38.327 57.397 39 56.57 39S55.07 38.327 55.07 37.5 55.743 36 56.57 36 58.07 36.673 58.07 37.5" fill="#ffffff" data-fill-palette-color="accent"></path><path d="M57.07 47C57.07 44.794 55.276 43 53.07 43S49.07 44.794 49.07 47 50.864 51 53.07 51 57.07 49.206 57.07 47M51.07 47C51.07 45.897 51.967 45 53.07 45S55.07 45.897 55.07 47 54.172 49 53.07 49C51.967 49 51.07 48.103 51.07 47" fill="#ffffff" data-fill-palette-color="accent"></path><path d="M53.07 60H55.07C55.07 56.141 58.211 53 62.07 53V51C57.107 51 53.07 55.037 53.07 60" fill="#ffffff" data-fill-palette-color="accent"></path><path d="M60.07 25H62.07C62.07 20.038 58.033 16 53.07 16V18C56.929 18 60.07 21.14 60.07 25" fill="#ffffff" data-fill-palette-color="accent"></path></svg></g></svg></g><g id="text-0"><path d="M26.569 91.294v0c-0.1 0.287-0.249 0.563-0.448 0.829-0.198 0.267-0.512 0.433-0.94 0.501-0.423 0.069-1.005-0.026-1.747-0.286v0c-0.598-0.209-1.339-0.531-2.223-0.965-0.886-0.428-1.822-0.91-2.811-1.444v0c-1.02-0.545-2.109-1.08-3.269-1.604-1.16-0.524-2.347-0.999-3.563-1.423v0c-0.48-0.168-0.999-0.335-1.555-0.502-0.563-0.169-1.119-0.311-1.667-0.425v0c0.035 0.201 0.056 0.39 0.064 0.568 0.008 0.178-0.013 0.338-0.063 0.482v0c-0.142 0.405-0.608 0.469-1.4 0.193v0c-0.717-0.25-1.265-0.624-1.644-1.12-0.373-0.494-0.637-1.251-0.791-2.27v0c-0.163-0.994-0.196-2.111-0.099-3.35 0.097-1.239 0.351-2.444 0.76-3.617v0c0.81-2.319 2.071-3.966 3.783-4.941 1.703-0.972 3.571-1.102 5.603-0.392v0c1.247 0.436 2.31 1.087 3.189 1.953 0.871 0.871 1.552 1.854 2.043 2.949 0.492 1.095 0.776 2.202 0.855 3.32 0.08 1.112-0.043 2.136-0.37 3.071v0c-0.309 0.885-0.715 1.415-1.217 1.589-0.508 0.172-1.133 0.129-1.874-0.13v0c-0.355-0.124-0.667-0.282-0.936-0.474-0.271-0.186-0.356-0.422-0.256-0.709v0c0.026-0.075 0.077-0.18 0.152-0.314 0.075-0.135 0.159-0.266 0.253-0.394v0c0.075-0.135 0.183-0.324 0.324-0.569 0.141-0.244 0.271-0.535 0.389-0.871v0c0.46-1.315 0.462-2.514 0.008-3.596-0.452-1.088-1.264-1.837-2.436-2.246v0c-1.222-0.427-2.338-0.306-3.348 0.362-1.01 0.668-1.765 1.719-2.266 3.153v0c-0.183 0.524-0.331 1.077-0.444 1.66-0.111 0.577-0.19 1.165-0.238 1.763v0c1.557 0.628 3.294 1.424 5.209 2.387v0c1.147 0.562 2.281 1.098 3.404 1.609 1.122 0.511 2.16 0.933 3.114 1.266v0c0.842 0.294 1.604 0.473 2.288 0.537 0.69 0.066 1.346-0.058 1.966-0.372v0c0.448-0.221 0.865-0.264 1.252-0.13v0c0.524 0.183 0.896 0.649 1.117 1.398 0.221 0.749 0.165 1.6-0.168 2.554z" fill="#ffffff" data-fill-palette-color="accent"></path><path d="M39.224 64.804v0c-0.872 1.244-1.962 1.971-3.271 2.183-1.309 0.211-2.688-0.191-4.137-1.206v0c-1.038-0.728-1.929-1.654-2.672-2.78-0.743-1.126-1.259-2.362-1.549-3.71-0.295-1.351-0.314-2.739-0.057-4.164 0.26-1.43 0.862-2.818 1.806-4.164v0c0.872-1.244 1.83-2.157 2.874-2.739 1.039-0.586 1.921-0.625 2.646-0.117v0c0.189 0.133 0.422 0.324 0.699 0.574 0.267 0.252 0.474 0.474 0.622 0.666v0c0.117 0.179 0.203 0.372 0.258 0.58 0.056 0.208 0.017 0.407-0.115 0.596v0c-0.057 0.081-0.195 0.214-0.413 0.4v0c0.372 0.39 0.753 0.749 1.142 1.079 0.386 0.335 0.787 0.648 1.204 0.94v0c0.784 0.549 1.568 0.921 2.351 1.115 0.778 0.19 1.488-0.018 2.13-0.623v0c0.167-0.157 0.333-0.262 0.499-0.316 0.161-0.057 0.376 0.01 0.647 0.199v0c0.227 0.159 0.477 0.419 0.748 0.779 0.272 0.36 0.437 0.798 0.494 1.314 0.054 0.521-0.13 1.082-0.55 1.682v0c-0.568 0.811-1.299 1.226-2.191 1.246-0.902 0.021-1.901-0.353-2.999-1.122v0c0.626 1.269 0.96 2.559 1.001 3.87 0.037 1.316-0.352 2.555-1.167 3.718zM36.687 61.539v0c0.584-0.833 0.837-1.747 0.762-2.744-0.076-0.996-0.385-1.947-0.929-2.852v0c-0.338-0.576-0.759-1.132-1.26-1.669-0.502-0.537-1.03-1.032-1.584-1.485v0c-0.414 0.234-0.833 0.545-1.258 0.932-0.421 0.382-0.806 0.822-1.155 1.32v0c-0.887 1.265-1.245 2.57-1.075 3.915 0.174 1.339 0.821 2.401 1.94 3.186v0c0.833 0.584 1.662 0.826 2.489 0.728 0.827-0.098 1.517-0.542 2.07-1.331z" fill="#ffffff" data-fill-palette-color="accent"></path><path d="M57.2 44.139v0c-0.312 0.255-0.607 0.405-0.884 0.452-0.272 0.043-0.484-0.087-0.636-0.388v0c-0.474-1.02-0.993-2.027-1.558-3.023-0.561-0.991-1.171-1.891-1.831-2.699v0c-0.847-1.039-1.531-1.746-2.051-2.123-0.52-0.377-0.963-0.569-1.328-0.578-0.369-0.014-0.752 0.06-1.149 0.221v0c-0.184 0.056-0.372 0.077-0.563 0.062-0.187-0.01-0.351-0.101-0.493-0.275v0c-0.225-0.276-0.366-0.668-0.422-1.176-0.051-0.512 0.017-1.049 0.206-1.612 0.194-0.567 0.546-1.059 1.058-1.477v0c0.665-0.543 1.319-0.692 1.96-0.449 0.642 0.243 1.267 0.739 1.877 1.486v0c-0.29-1.076-0.361-2.057-0.215-2.943 0.141-0.882 0.606-1.644 1.393-2.287v0c0.527-0.43 1.063-0.671 1.608-0.724 0.545-0.053 1.035 0.187 1.469 0.72v0c0.43 0.527 0.661 1.161 0.694 1.9 0.033 0.74-0.127 1.254-0.48 1.542v0c-0.056 0.046-0.132 0.095-0.226 0.146-0.093 0.042-0.204 0.047-0.333 0.016v0c-0.51-0.103-0.95-0.005-1.318 0.296v0c-0.573 0.467-0.77 1.25-0.59 2.347 0.18 1.098 0.785 2.321 1.816 3.669v0c0.421 0.475 0.843 0.961 1.267 1.459 0.428 0.503 0.737 0.873 0.929 1.108v0c0.593 0.727 0.879 1.49 0.859 2.291-0.02 0.8-0.373 1.48-1.059 2.039z" fill="#ffffff" data-fill-palette-color="accent"></path><path d="M79.906 29.571v0c-1.39 0.674-2.613 0.695-3.668 0.063-1.047-0.63-1.923-1.672-2.63-3.128v0c-0.257-0.529-0.479-1.056-0.668-1.58-0.183-0.528-0.364-1.06-0.543-1.597v0c-0.171-0.534-0.34-1.057-0.509-1.57-0.159-0.51-0.323-0.992-0.492-1.445v0c-0.409 0.367-0.854 0.668-1.335 0.901v0c-0.499 0.242-0.848 0.158-1.047-0.252v0c-0.21-0.434-0.275-1.059-0.195-1.876 0.083-0.811 0.266-1.667 0.549-2.567 0.285-0.894 0.617-1.694 0.994-2.398 0.378-0.704 0.771-1.156 1.182-1.354v0c0.499-0.242 0.957 0.068 1.375 0.928v0c0.112 0.232 0.208 0.475 0.288 0.73 0.086 0.252 0.167 0.517 0.243 0.796v0c0.388-0.305 0.788-0.599 1.202-0.88 0.405-0.285 0.812-0.526 1.223-0.726v0c0.529-0.257 0.98-0.362 1.354-0.316 0.374 0.046 0.689 0.33 0.943 0.853v0c0.265 0.547 0.4 1.156 0.403 1.83-0.002 0.676-0.161 1.091-0.475 1.244v0c-0.071 0.035-0.193 0.079-0.365 0.133-0.172 0.054-0.381 0.115-0.627 0.183v0c-0.332 0.073-0.739 0.186-1.222 0.339-0.492 0.151-1.059 0.382-1.701 0.693v0c0.189 0.782 0.398 1.576 0.628 2.382 0.236 0.803 0.496 1.499 0.781 2.087v0c0.643 1.325 1.412 2.063 2.308 2.216 0.893 0.161 1.966-0.062 3.219-0.671v0c0.386-0.187 0.69-0.258 0.911-0.21 0.221 0.047 0.409 0.231 0.565 0.551v0c0.363 0.749 0.284 1.576-0.238 2.482-0.519 0.897-1.336 1.617-2.453 2.159z" fill="#ffffff" data-fill-palette-color="accent"></path><path d="M99.615 33.049v0c-1.02 0.186-1.947 0.07-2.782-0.349-0.833-0.412-1.334-1.079-1.503-2.001v0c-0.131-0.721-0.026-1.378 0.316-1.971 0.343-0.586 0.839-0.938 1.489-1.056v0c0.299-0.054 0.519-0.044 0.66 0.03 0.141 0.075 0.259 0.168 0.352 0.278v0c0.261 0.288 0.543 0.529 0.847 0.722 0.309 0.185 0.688 0.237 1.135 0.155v0c0.598-0.109 1.137-0.425 1.619-0.949 0.488-0.525 0.916-1.107 1.283-1.744v0c0.342-0.552 0.732-1.325 1.169-2.317 0.437-0.992 0.851-2.105 1.244-3.338v0c-0.466 0.575-0.913 1.012-1.342 1.312-0.435 0.301-0.867 0.49-1.296 0.569v0c-0.52 0.095-1.065-0.007-1.636-0.306-0.57-0.292-1.014-0.963-1.333-2.012v0c-0.222-0.812-0.53-1.695-0.926-2.651-0.39-0.962-0.826-1.883-1.309-2.761-0.482-0.879-1.006-1.599-1.571-2.16v0c-0.23-0.267-0.472-0.454-0.727-0.562-0.248-0.109-0.591-0.151-1.029-0.125v0c-0.304 0.028-0.511-0.024-0.623-0.158-0.112-0.134-0.197-0.363-0.257-0.688v0c-0.163-0.896-0.048-1.662 0.347-2.299 0.4-0.643 1.022-1.042 1.866-1.195v0c1.026-0.187 1.835 0.072 2.427 0.776 0.591 0.704 1.152 1.589 1.681 2.653v0c0.205 0.426 0.443 0.993 0.713 1.702 0.27 0.709 0.537 1.476 0.802 2.301 0.272 0.83 0.501 1.627 0.687 2.391v0c0.125 0.541 0.487 0.757 1.085 0.648v0c0.799-0.146 1.513-0.534 2.143-1.166 0.631-0.625 1.104-1.379 1.42-2.262 0.316-0.883 0.394-1.76 0.236-2.63v0c-0.091-0.5-0.235-0.937-0.43-1.311-0.197-0.38-0.472-0.693-0.826-0.937v0c-0.301-0.254-0.543-0.458-0.725-0.613-0.184-0.161-0.299-0.368-0.345-0.621v0c-0.077-0.422 0.049-0.855 0.378-1.297 0.328-0.449 0.751-0.848 1.271-1.199 0.512-0.355 0.98-0.571 1.402-0.648v0c0.747-0.136 1.312 0.13 1.696 0.798 0.376 0.663 0.58 1.431 0.611 2.305v0c0.064 1.196 0.016 2.631-0.141 4.305-0.157 1.68-0.434 3.455-0.832 5.326-0.39 1.876-0.891 3.713-1.503 5.509-0.611 1.803-1.315 3.408-2.112 4.815v0c-0.682 1.232-1.499 2.273-2.451 3.124-0.945 0.857-2.005 1.392-3.18 1.607z" fill="#ffffff" data-fill-palette-color="accent"></path><path d="M152.506 24.992v0c-0.289-0.093-0.569-0.236-0.84-0.427-0.271-0.192-0.442-0.5-0.513-0.926-0.079-0.421 0.002-1.005 0.244-1.753v0c0.173-0.534 0.425-1.174 0.756-1.921 0.336-0.738 0.72-1.53 1.153-2.375v0c0.578-1.145 1.153-2.365 1.724-3.658 0.565-1.296 1.072-2.641 1.523-4.036v0c0.368-1.137 0.629-2.139 0.784-3.005 0.161-0.864 0.231-1.553 0.21-2.066v0c-0.925-0.271-1.812-0.492-2.659-0.661-0.847-0.17-1.73-0.282-2.65-0.336v0c-0.222-0.044-0.416-0.076-0.583-0.095-0.169-0.013-0.326-0.043-0.471-0.09v0c-0.22-0.071-0.364-0.163-0.431-0.275-0.066-0.118-0.045-0.344 0.062-0.677v0c0.134-0.415 0.333-0.826 0.597-1.233 0.264-0.407 0.566-0.73 0.905-0.967v0c0.353-0.254 0.718-0.406 1.096-0.458 0.371-0.053 0.76-0.042 1.165 0.033v0c0.625 0.126 1.416 0.309 2.373 0.549 0.961 0.248 2.008 0.528 3.143 0.839 1.141 0.313 2.252 0.645 3.332 0.994v0c1.759 0.569 3.015 0.988 3.767 1.259 0.752 0.271 1.252 0.474 1.5 0.61v0c0.325 0.154 0.528 0.33 0.609 0.53 0.081 0.2 0.067 0.469-0.043 0.808v0c-0.209 0.647-0.708 1.204-1.497 1.671v0c-0.332 0.212-0.656 0.354-0.971 0.425-0.321 0.07-0.694 0.022-1.119-0.143v0c-0.367-0.174-0.921-0.391-1.663-0.652-0.74-0.267-1.568-0.548-2.485-0.845v0c-0.297 0.834-0.68 1.793-1.148 2.876-0.47 1.09-0.961 2.177-1.471 3.262v0c-0.504 1.065-0.982 2.136-1.434 3.211-0.458 1.073-0.835 2.069-1.131 2.986v0c-0.274 0.848-0.435 1.615-0.484 2.3-0.05 0.692 0.093 1.345 0.429 1.96v0c0.225 0.441 0.275 0.856 0.149 1.245v0c-0.171 0.528-0.624 0.912-1.362 1.153-0.743 0.239-1.599 0.201-2.566-0.112z" fill="#ffffff" data-fill-palette-color="accent"></path><path d="M184.456 18.178v0c-0.593-0.385-0.974-0.862-1.141-1.431-0.162-0.566-0.054-1.166 0.325-1.801v0c0.422-0.656 0.978-1.066 1.668-1.23 0.685-0.168 1.358-0.04 2.019 0.385v0c0.622 0.402 1.008 0.882 1.158 1.441 0.151 0.559 0.025 1.149-0.376 1.771v0c-0.406 0.642-0.943 1.052-1.61 1.23-0.664 0.173-1.345 0.051-2.043-0.365zM174.62 34.742v0c-0.652-0.389-1.056-0.872-1.211-1.45-0.161-0.581 0.019-1.307 0.539-2.18v0c0.298-0.499 0.64-0.956 1.026-1.372 0.384-0.424 0.776-0.825 1.178-1.2v0c0.441-0.391 0.858-0.807 1.252-1.248 0.394-0.441 0.76-0.946 1.099-1.513v0c0.233-0.391 0.403-0.798 0.508-1.219 0.109-0.427 0.03-0.836-0.237-1.226v0c-0.192-0.322-0.344-0.628-0.456-0.918-0.106-0.286-0.081-0.56 0.074-0.821v0c0.179-0.301 0.516-0.542 1.009-0.724 0.49-0.177 1.042-0.251 1.656-0.223 0.62 0.031 1.179 0.196 1.677 0.493v0c0.544 0.325 0.858 0.701 0.942 1.128 0.08 0.432 0.033 0.892-0.142 1.379-0.17 0.491-0.39 0.963-0.661 1.417v0c-0.416 0.697-0.876 1.346-1.379 1.945-0.509 0.596-0.987 1.145-1.433 1.647v0c-0.332 0.363-0.624 0.704-0.876 1.023-0.255 0.325-0.472 0.637-0.652 0.938v0c-0.325 0.544-0.435 1.032-0.331 1.463 0.098 0.428 0.315 0.903 0.649 1.426v0c0.129 0.223 0.127 0.445-0.005 0.665v0c-0.105 0.176-0.352 0.397-0.742 0.665-0.396 0.264-0.898 0.422-1.505 0.474-0.605 0.047-1.264-0.143-1.979-0.569z" fill="#ffffff" data-fill-palette-color="accent"></path><path d="M189.469 46.342v0c-0.608-0.679-0.652-1.184-0.133-1.515v0c0.997-0.52 1.98-1.085 2.949-1.696 0.964-0.606 1.835-1.257 2.612-1.952v0c0.999-0.894 1.674-1.609 2.027-2.146 0.352-0.537 0.525-0.988 0.516-1.354-0.007-0.374-0.099-0.754-0.273-1.137v0c-0.065-0.181-0.094-0.368-0.088-0.559 0.001-0.187 0.085-0.355 0.252-0.505v0c0.266-0.238 0.651-0.396 1.156-0.476 0.505-0.08 1.049-0.031 1.633 0.147 0.584 0.177 1.094 0.51 1.53 0.996v0c0.577 0.645 0.754 1.288 0.531 1.93-0.223 0.642-0.693 1.285-1.411 1.928v0c-0.472 0.423-1.045 0.847-1.719 1.273-0.664 0.426-1.274 0.804-1.831 1.133v0l0.024 0.085c1.267-0.594 2.525-1.05 3.772-1.369 1.243-0.315 2.414-0.392 3.513-0.233 1.09 0.159 2.007 0.654 2.752 1.485v0c0.762 0.851 1.075 1.78 0.939 2.788-0.14 1.002-0.766 2.001-1.877 2.996v0l-0.628 0.561c1.645-0.479 3.206-0.676 4.683-0.589 1.473 0.091 2.707 0.692 3.702 1.805v0c0.81 0.905 1.142 1.885 0.995 2.938-0.142 1.049-0.669 1.981-1.579 2.795v0c-0.354 0.317-0.734 0.586-1.139 0.806-0.396 0.221-0.795 0.428-1.199 0.621v0c-0.371 0.19-0.751 0.393-1.142 0.61-0.386 0.212-0.739 0.462-1.058 0.748v0c-1.132 1.013-1.438 2.151-0.919 3.415v0c0.06 0.186 0.093 0.347 0.1 0.482-0.003 0.135-0.088 0.278-0.256 0.428v0c-0.172 0.154-0.464 0.323-0.876 0.505-0.412 0.183-0.893 0.245-1.442 0.187-0.539-0.058-1.062-0.37-1.568-0.936v0c-0.661-0.738-0.899-1.544-0.715-2.417 0.18-0.878 0.685-1.69 1.517-2.434v0c0.418-0.374 0.887-0.727 1.405-1.058 0.523-0.326 1.042-0.618 1.557-0.875v0c0.463-0.246 0.892-0.488 1.289-0.728 0.401-0.235 0.725-0.463 0.97-0.683v0c0.453-0.405 0.685-0.808 0.699-1.21 0.013-0.401-0.141-0.782-0.463-1.141v0c-0.542-0.605-1.215-0.982-2.021-1.129-0.81-0.143-1.681-0.126-2.612 0.052-0.935 0.173-1.881 0.448-2.837 0.825v0c-0.15 0.169-0.358 0.382-0.625 0.638-0.262 0.252-0.498 0.473-0.71 0.662v0c-0.354 0.317-0.753 0.629-1.195 0.937-0.443 0.307-0.851 0.514-1.227 0.62v0c-0.496 0.169-0.989 0.207-1.479 0.114-0.486-0.088-0.949-0.378-1.39-0.87v0c-0.185-0.207-0.319-0.441-0.403-0.702-0.088-0.267-0.036-0.486 0.156-0.658v0c0.074-0.066 0.459-0.309 1.155-0.729 0.697-0.42 1.529-0.96 2.496-1.622 0.972-0.666 1.871-1.369 2.698-2.109v0c0.91-0.815 1.456-1.472 1.639-1.971 0.182-0.5 0.103-0.939-0.236-1.318v0c-0.423-0.472-1.023-0.742-1.8-0.808-0.782-0.071-1.639-0.004-2.571 0.201-0.938 0.21-1.858 0.493-2.762 0.85-0.908 0.352-1.723 0.713-2.445 1.085v0l-0.31 0.277c-0.699 0.625-1.446 0.949-2.242 0.97-0.801 0.016-1.496-0.305-2.086-0.964z" fill="#ffffff" data-fill-palette-color="accent"></path><path d="M214.252 81.341v0c-0.755-1.767-0.838-3.365-0.25-4.794 0.591-1.423 1.794-2.522 3.61-3.298v0c1.658-0.708 3.315-0.989 4.972-0.842 1.663 0.144 3.157 0.658 4.482 1.542 1.323 0.878 2.298 2.052 2.926 3.521v0c0.597 1.397 0.731 2.66 0.403 3.792-0.328 1.131-1.063 1.94-2.204 2.428v0c-0.911 0.389-1.868 0.468-2.872 0.236-1.01-0.229-1.941-0.711-2.793-1.446-0.855-0.741-1.526-1.682-2.014-2.823v0c-0.597-1.397-0.769-2.673-0.516-3.829v0c-1.058 0.481-1.764 1.217-2.116 2.207-0.346 0.988-0.281 2.041 0.197 3.158v0c0.288 0.674 0.705 1.314 1.251 1.921 0.546 0.607 1.139 1.079 1.779 1.416v0c0.419 0.209 0.689 0.452 0.808 0.732v0c0.099 0.231 0.104 0.454 0.018 0.671-0.081 0.214-0.24 0.372-0.477 0.473v0c-0.51 0.218-1.373 0.063-2.59-0.466v0c-2.16-0.922-3.699-2.455-4.614-4.599zM222.693 78.359v0c0.358 0.838 0.829 1.462 1.414 1.873 0.591 0.408 1.153 0.498 1.688 0.27v0c0.443-0.189 0.707-0.521 0.792-0.995 0.082-0.48-0.016-1.045-0.294-1.695v0c-0.368-0.862-0.915-1.519-1.639-1.971-0.728-0.443-1.558-0.63-2.491-0.562v0c-0.075 0.413-0.06 0.902 0.045 1.467 0.103 0.559 0.264 1.097 0.485 1.613z" fill="#ffffff" data-fill-palette-color="accent"></path><path d="M11.087 155.565v0c-0.097-0.281-0.15-0.584-0.158-0.91-0.008-0.326 0.13-0.643 0.414-0.951 0.287-0.302 0.792-0.579 1.515-0.83v0c0.58-0.201 1.337-0.408 2.27-0.62 0.935-0.206 1.942-0.405 3.021-0.598v0c1.106-0.195 2.26-0.446 3.462-0.75 1.203-0.299 2.401-0.655 3.592-1.069v0c0.468-0.162 0.966-0.349 1.493-0.56 0.53-0.205 1.038-0.434 1.523-0.686v0c-0.15-0.13-0.279-0.26-0.387-0.39-0.114-0.128-0.196-0.264-0.246-0.408v0c-0.136-0.393 0.182-0.724 0.956-0.992v0c0.699-0.243 1.339-0.29 1.921-0.143 0.591 0.151 1.253 0.568 1.986 1.251v0c0.727 0.663 1.429 1.499 2.108 2.508 0.67 1.004 1.203 2.077 1.599 3.219v0c0.786 2.264 0.823 4.285 0.113 6.062-0.719 1.773-2.071 3.004-4.055 3.693v0c-1.21 0.42-2.411 0.564-3.603 0.433-1.2-0.136-2.317-0.475-3.351-1.017-1.04-0.541-1.927-1.211-2.659-2.013-0.739-0.799-1.266-1.654-1.583-2.564v0c-0.301-0.867-0.31-1.517-0.027-1.951 0.281-0.44 0.783-0.785 1.506-1.037v0c0.349-0.121 0.682-0.191 0.997-0.209 0.321-0.021 0.531 0.109 0.628 0.39v0c0.026 0.075 0.05 0.185 0.073 0.331 0.029 0.144 0.043 0.296 0.043 0.456v0c0.023 0.146 0.057 0.354 0.102 0.626 0.039 0.273 0.116 0.575 0.231 0.905v0c0.444 1.279 1.167 2.195 2.17 2.749 1.003 0.554 2.075 0.632 3.216 0.235v0c1.191-0.414 1.97-1.18 2.337-2.299 0.372-1.122 0.316-2.381-0.169-3.779v0c-0.178-0.511-0.4-1.021-0.667-1.53-0.267-0.508-0.566-1.006-0.896-1.492v0c-1.558 0.464-3.362 0.905-5.412 1.323v0c-1.214 0.268-2.407 0.546-3.579 0.833-1.166 0.286-2.213 0.59-3.143 0.913v0c-0.817 0.284-1.507 0.611-2.071 0.981-0.566 0.364-0.989 0.857-1.269 1.479v0c-0.218 0.439-0.514 0.724-0.888 0.853v0c-0.511 0.178-1.077 0.049-1.696-0.386-0.621-0.441-1.093-1.127-1.417-2.056z" fill="#ffffff" data-fill-palette-color="accent"></path><path d="M25.565 186.206v0c-0.851-1.218-1.151-2.462-0.903-3.73 0.24-1.271 1.066-2.4 2.48-3.387v0c1.012-0.707 2.157-1.213 3.434-1.517 1.277-0.304 2.583-0.366 3.917-0.186 1.332 0.189 2.608 0.639 3.829 1.348 1.224 0.715 2.296 1.731 3.215 3.046v0c0.847 1.213 1.362 2.395 1.547 3.547 0.19 1.148-0.07 1.97-0.779 2.465v0c-0.184 0.129-0.437 0.273-0.76 0.434-0.319 0.166-0.593 0.281-0.823 0.345v0c-0.204 0.054-0.409 0.072-0.614 0.054-0.209-0.023-0.378-0.126-0.507-0.31v0c-0.057-0.081-0.133-0.254-0.228-0.517v0c-0.484 0.217-0.94 0.447-1.367 0.689-0.436 0.24-0.857 0.502-1.264 0.786v0c-0.769 0.537-1.369 1.13-1.802 1.778-0.438 0.652-0.488 1.372-0.148 2.157v0c0.091 0.211 0.135 0.401 0.133 0.572-0.006 0.165-0.141 0.34-0.406 0.525v0c-0.222 0.155-0.541 0.297-0.958 0.427-0.426 0.128-0.884 0.13-1.374 0.005-0.495-0.121-0.947-0.474-1.356-1.058v0c-0.552-0.79-0.686-1.599-0.401-2.426 0.275-0.828 0.949-1.617 2.021-2.366v0c-1.372 0.145-2.666 0.017-3.88-0.383-1.214-0.401-2.216-1.166-3.006-2.298zM29.398 184.967v0c0.567 0.812 1.321 1.349 2.261 1.61 0.934 0.266 1.905 0.3 2.912 0.105v0c0.642-0.118 1.294-0.316 1.954-0.592 0.662-0.285 1.293-0.605 1.892-0.959v0c-0.085-0.456-0.231-0.942-0.439-1.457-0.207-0.516-0.481-1.017-0.821-1.505v0c-0.862-1.234-1.938-1.997-3.228-2.287-1.281-0.289-2.468-0.052-3.562 0.712v0c-0.812 0.567-1.309 1.245-1.492 2.032-0.188 0.792-0.014 1.572 0.523 2.341z" fill="#ffffff" data-fill-palette-color="accent"></path><path d="M46.753 210.126v0c-0.302-0.247-0.503-0.496-0.604-0.749-0.096-0.258-0.011-0.487 0.255-0.687v0c0.878-0.647 1.738-1.338 2.579-2.075 0.837-0.732 1.575-1.488 2.215-2.27v0c0.828-1.012 1.372-1.803 1.634-2.374 0.257-0.575 0.353-1.037 0.29-1.388-0.059-0.355-0.204-0.704-0.436-1.047v0c-0.087-0.165-0.142-0.338-0.164-0.519-0.028-0.185 0.027-0.362 0.165-0.53v0c0.222-0.271 0.569-0.482 1.041-0.632 0.477-0.156 1.006-0.197 1.586-0.124 0.576 0.078 1.111 0.32 1.607 0.725v0c0.649 0.531 0.92 1.123 0.812 1.777-0.107 0.663-0.457 1.357-1.051 2.083v0c0.965-0.482 1.885-0.74 2.758-0.776 0.874-0.036 1.694 0.259 2.461 0.886v0c0.516 0.422 0.852 0.888 1.006 1.398 0.154 0.51 0.021 1.023-0.401 1.54v0c-0.422 0.516-0.983 0.864-1.684 1.042-0.696 0.173-1.218 0.117-1.565-0.167v0c-0.056-0.046-0.116-0.108-0.18-0.186-0.06-0.083-0.087-0.186-0.081-0.309v0c0-0.511-0.181-0.916-0.543-1.212v0c-0.552-0.451-1.334-0.486-2.348-0.103-1.018 0.379-2.069 1.195-3.154 2.45v0c-0.368 0.492-0.75 0.99-1.145 1.494-0.404 0.505-0.699 0.87-0.882 1.095v0c-0.581 0.711-1.252 1.134-2.012 1.272-0.77 0.138-1.489-0.066-2.159-0.614z" fill="#ffffff" data-fill-palette-color="accent"></path><path d="M72.668 226.94v0c-1.355-0.657-2.107-1.579-2.257-2.768-0.153-1.182 0.114-2.483 0.802-3.903v0c0.248-0.511 0.518-1 0.811-1.468 0.29-0.461 0.588-0.918 0.895-1.37v0c0.302-0.456 0.599-0.902 0.892-1.34 0.29-0.432 0.561-0.847 0.813-1.246v0c-0.533-0.097-1.031-0.258-1.494-0.482v0c-0.493-0.239-0.643-0.558-0.45-0.956v0c0.204-0.422 0.645-0.847 1.322-1.274 0.677-0.428 1.443-0.805 2.298-1.131 0.855-0.326 1.665-0.558 2.428-0.695 0.769-0.133 1.353-0.104 1.751 0.09v0c0.487 0.236 0.526 0.776 0.117 1.619v0c-0.107 0.22-0.232 0.441-0.377 0.665-0.148 0.214-0.302 0.433-0.462 0.657v0c0.465 0.115 0.93 0.246 1.396 0.39 0.459 0.142 0.891 0.311 1.295 0.507v0c0.511 0.248 0.86 0.527 1.047 0.838 0.193 0.314 0.167 0.723-0.078 1.228v0c-0.259 0.535-0.646 1.008-1.161 1.418-0.515 0.411-0.927 0.541-1.235 0.392v0c-0.065-0.032-0.172-0.098-0.322-0.2-0.143-0.099-0.314-0.222-0.514-0.37v0c-0.257-0.212-0.589-0.458-0.996-0.737-0.414-0.281-0.933-0.573-1.557-0.875v0c-0.489 0.614-0.97 1.251-1.443 1.909-0.47 0.667-0.845 1.289-1.124 1.865v0c-0.625 1.289-0.729 2.321-0.312 3.096 0.42 0.783 1.239 1.47 2.457 2.061v0c0.38 0.184 0.619 0.373 0.715 0.567 0.094 0.2 0.066 0.454-0.083 0.763v0c-0.357 0.737-1.037 1.178-2.039 1.323-1.002 0.145-2.047-0.046-3.135-0.573z" fill="#ffffff" data-fill-palette-color="accent"></path><path d="M93.381 244.335v0c-1.001-0.181-1.809-0.607-2.426-1.276-0.618-0.662-0.846-1.442-0.683-2.338v0c0.127-0.702 0.447-1.264 0.96-1.688 0.519-0.423 1.094-0.577 1.724-0.462v0c0.292 0.053 0.488 0.139 0.588 0.257 0.106 0.12 0.183 0.248 0.232 0.384v0c0.138 0.347 0.316 0.661 0.534 0.943 0.212 0.273 0.536 0.449 0.971 0.528v0c0.585 0.106 1.187 0.004 1.807-0.306 0.621-0.317 1.211-0.7 1.769-1.149v0c0.499-0.386 1.117-0.958 1.851-1.718 0.74-0.752 1.502-1.62 2.284-2.606v0c-0.623 0.364-1.183 0.604-1.681 0.722-0.499 0.124-0.953 0.149-1.362 0.075v0c-0.513-0.093-0.976-0.372-1.389-0.835-0.419-0.465-0.595-1.232-0.529-2.301v0c0.073-0.812 0.094-1.721 0.062-2.726-0.031-1.012-0.114-2-0.248-2.964-0.14-0.965-0.371-1.802-0.692-2.511v0c-0.122-0.324-0.277-0.58-0.465-0.769-0.195-0.183-0.492-0.338-0.892-0.464v0c-0.289-0.072-0.462-0.191-0.519-0.356-0.059-0.158-0.059-0.397-0.001-0.715v0c0.158-0.871 0.526-1.532 1.104-1.984 0.584-0.444 1.288-0.592 2.114-0.442v0c1.001 0.181 1.649 0.695 1.945 1.541 0.296 0.846 0.505 1.843 0.625 2.992v0c0.038 0.457 0.06 1.054 0.067 1.794-0.001 0.745-0.021 1.54-0.06 2.384-0.039 0.845-0.101 1.649-0.185 2.413v0c-0.077 0.536 0.177 0.857 0.761 0.963v0c0.78 0.141 1.564 0.032 2.355-0.328 0.79-0.36 1.483-0.885 2.077-1.576 0.59-0.698 0.962-1.473 1.116-2.324v0c0.087-0.481 0.104-0.927 0.052-1.34-0.053-0.412-0.196-0.79-0.429-1.134v0c-0.194-0.337-0.346-0.61-0.456-0.818-0.116-0.209-0.153-0.434-0.109-0.674v0c0.075-0.416 0.341-0.77 0.797-1.063 0.456-0.293 0.978-0.51 1.568-0.652 0.591-0.148 1.094-0.184 1.509-0.109v0c0.728 0.132 1.149 0.567 1.263 1.306 0.122 0.733 0.046 1.505-0.228 2.314v0c-0.356 1.11-0.892 2.402-1.609 3.876-0.718 1.48-1.578 3.005-2.581 4.575-0.997 1.577-2.085 3.081-3.264 4.511-1.172 1.432-2.363 2.652-3.573 3.661v0c-1.041 0.892-2.142 1.564-3.305 2.018-1.163 0.454-2.312 0.577-3.449 0.371z" fill="#ffffff" data-fill-palette-color="accent"></path><path d="M157.904 232.046v0c-0.276 0.09-0.577 0.137-0.902 0.138-0.326 0.002-0.64-0.142-0.944-0.431-0.303-0.29-0.574-0.799-0.811-1.527v0c-0.168-0.515-0.334-1.159-0.497-1.932-0.158-0.782-0.31-1.628-0.455-2.54v0c-0.195-1.235-0.444-2.526-0.744-3.872-0.293-1.342-0.662-2.694-1.107-4.057v0c-0.361-1.105-0.727-2.044-1.099-2.819-0.371-0.775-0.711-1.358-1.02-1.75v0c-0.883 0.316-1.708 0.652-2.474 1.006-0.766 0.355-1.526 0.773-2.278 1.256v0c-0.207 0.089-0.38 0.176-0.518 0.263-0.138 0.087-0.28 0.154-0.424 0.201v0c-0.207 0.068-0.371 0.076-0.492 0.025-0.121-0.051-0.236-0.243-0.345-0.575v0c-0.129-0.395-0.206-0.832-0.23-1.311-0.029-0.47 0.027-0.895 0.167-1.273v0c0.123-0.409 0.321-0.74 0.592-0.996 0.265-0.253 0.577-0.466 0.937-0.64v0c0.561-0.26 1.291-0.568 2.188-0.923 0.896-0.362 1.883-0.744 2.96-1.145 1.069-0.405 2.134-0.781 3.196-1.128v0c1.707-0.558 2.935-0.945 3.683-1.162 0.749-0.217 1.259-0.346 1.531-0.386v0c0.343-0.056 0.605-0.031 0.786 0.077 0.183 0.114 0.328 0.334 0.434 0.66v0c0.207 0.634 0.132 1.36-0.225 2.179v0c-0.146 0.36-0.323 0.658-0.532 0.892-0.208 0.235-0.526 0.408-0.955 0.521v0c-0.391 0.079-0.955 0.225-1.691 0.438-0.736 0.213-1.55 0.465-2.441 0.756v0c0.25 0.828 0.5 1.806 0.75 2.933 0.25 1.127 0.487 2.265 0.71 3.415v0c0.208 1.127 0.441 2.242 0.698 3.346 0.259 1.11 0.534 2.111 0.825 3.002v0c0.269 0.822 0.58 1.519 0.934 2.092 0.36 0.57 0.848 1.001 1.464 1.292v0c0.435 0.226 0.714 0.527 0.837 0.904v0c0.168 0.515 0.026 1.079-0.426 1.692-0.446 0.611-1.14 1.071-2.082 1.379z" fill="#ffffff" data-fill-palette-color="accent"></path><path d="M173.73 204.546v0c-0.607 0.336-1.19 0.444-1.747 0.325-0.567-0.121-1.036-0.489-1.408-1.106v0c-0.37-0.664-0.467-1.33-0.292-1.998 0.175-0.669 0.594-1.188 1.258-1.557v0c0.626-0.355 1.214-0.467 1.764-0.336 0.555 0.128 1.006 0.504 1.352 1.128v0c0.365 0.643 0.471 1.293 0.319 1.947-0.152 0.655-0.568 1.187-1.246 1.597zM183.46 220.595v0c-0.633 0.382-1.235 0.51-1.805 0.384-0.568-0.136-1.106-0.625-1.614-1.467v0c-0.293-0.486-0.536-0.991-0.729-1.515-0.184-0.522-0.343-1.042-0.479-1.562v0c-0.136-0.558-0.303-1.109-0.5-1.653-0.203-0.541-0.47-1.085-0.801-1.634v0c-0.229-0.379-0.499-0.713-0.813-1.002-0.315-0.28-0.705-0.396-1.169-0.347v0c-0.363 0.011-0.695-0.001-0.994-0.036-0.293-0.039-0.515-0.183-0.665-0.432v0c-0.181-0.3-0.238-0.701-0.171-1.204 0.076-0.501 0.266-1.009 0.572-1.525 0.311-0.519 0.71-0.926 1.196-1.219v0c0.526-0.317 0.992-0.414 1.399-0.289 0.41 0.13 0.786 0.382 1.126 0.755 0.337 0.367 0.641 0.774 0.91 1.221v0c0.406 0.673 0.75 1.364 1.031 2.073 0.287 0.706 0.544 1.368 0.771 1.987v0c0.157 0.453 0.317 0.858 0.479 1.215 0.159 0.366 0.33 0.7 0.51 0.999v0c0.317 0.526 0.683 0.845 1.098 0.957 0.415 0.112 0.924 0.144 1.528 0.097v0c0.254-0.014 0.445 0.086 0.574 0.301v0c0.102 0.17 0.176 0.484 0.222 0.942 0.049 0.464-0.045 0.968-0.28 1.511-0.235 0.543-0.701 1.024-1.396 1.443z" fill="#ffffff" data-fill-palette-color="accent"></path><path d="M202.302 205.665v0c-0.587 0.662-1.07 0.759-1.449 0.29v0c-0.611-0.903-1.268-1.79-1.97-2.66-0.697-0.865-1.424-1.633-2.18-2.303v0c-0.978-0.867-1.747-1.443-2.307-1.728-0.564-0.279-1.022-0.395-1.375-0.345-0.357 0.045-0.712 0.176-1.064 0.393v0c-0.168 0.08-0.343 0.128-0.525 0.144-0.186 0.021-0.36-0.041-0.523-0.186v0c-0.262-0.232-0.459-0.588-0.59-1.066-0.137-0.483-0.152-1.018-0.047-1.604 0.11-0.582 0.377-1.113 0.802-1.591v0c0.556-0.627 1.155-0.869 1.795-0.726 0.649 0.143 1.325 0.526 2.026 1.148v0c0.464 0.412 0.942 0.919 1.432 1.521 0.494 0.597 0.93 1.146 1.305 1.648v0l0.076-0.026c-0.715-1.164-1.298-2.333-1.747-3.508-0.445-1.171-0.65-2.293-0.617-3.366 0.029-1.078 0.405-2.024 1.128-2.839v0c0.736-0.83 1.598-1.235 2.586-1.215 0.988 0.02 2.026 0.512 3.112 1.476v0l0.615 0.545c-0.649-1.537-1.014-3.026-1.096-4.466-0.077-1.436 0.369-2.7 1.337-3.792v0c0.784-0.884 1.694-1.313 2.729-1.287 1.03 0.022 1.99 0.428 2.879 1.216v0c0.351 0.311 0.654 0.646 0.91 1.005 0.26 0.363 0.505 0.73 0.732 1.1v0c0.231 0.337 0.471 0.683 0.722 1.037 0.246 0.35 0.526 0.665 0.843 0.945v0c1.107 0.981 2.244 1.147 3.411 0.497v0c0.168-0.08 0.32-0.127 0.455-0.14 0.13-0.017 0.276 0.047 0.44 0.192v0c0.168 0.149 0.364 0.411 0.587 0.785 0.224 0.384 0.338 0.843 0.342 1.376 0.004 0.533-0.239 1.076-0.73 1.629v0c-0.64 0.721-1.392 1.043-2.257 0.964-0.875-0.078-1.717-0.477-2.527-1.195v0c-0.405-0.359-0.797-0.773-1.177-1.242-0.379-0.468-0.721-0.939-1.025-1.411v0c-0.292-0.417-0.572-0.808-0.842-1.171-0.274-0.358-0.532-0.644-0.774-0.858v0c-0.445-0.394-0.862-0.575-1.253-0.542-0.391 0.033-0.742 0.225-1.053 0.575v0c-0.526 0.593-0.811 1.288-0.857 2.086-0.05 0.803 0.059 1.645 0.327 2.527 0.277 0.881 0.651 1.764 1.121 2.648v0c0.186 0.129 0.416 0.307 0.691 0.534 0.276 0.227 0.515 0.43 0.717 0.609v0c0.351 0.311 0.699 0.664 1.046 1.06 0.346 0.386 0.59 0.757 0.734 1.114v0c0.219 0.459 0.313 0.931 0.281 1.414-0.032 0.484-0.26 0.965-0.685 1.444v0c-0.18 0.203-0.395 0.36-0.645 0.474-0.246 0.108-0.461 0.081-0.643-0.08v0c-0.074-0.066-0.354-0.411-0.841-1.037-0.477-0.626-1.093-1.37-1.846-2.233-0.749-0.867-1.531-1.662-2.347-2.384v0c-0.884-0.784-1.58-1.233-2.087-1.348-0.503-0.119-0.919 0.006-1.248 0.376v0c-0.407 0.459-0.602 1.068-0.585 1.825 0.022 0.761 0.184 1.584 0.486 2.468 0.305 0.88 0.682 1.739 1.13 2.577 0.439 0.839 0.879 1.587 1.32 2.243v0l0.304 0.27c0.687 0.609 1.084 1.296 1.19 2.061 0.107 0.775-0.126 1.486-0.699 2.133z" fill="#ffffff" data-fill-palette-color="accent"></path><path d="M229.679 166.366v0c-0.73 1.727-1.796 2.865-3.196 3.413-1.4 0.548-2.985 0.448-4.755-0.301v0c-1.618-0.684-2.934-1.656-3.95-2.917-1.021-1.263-1.672-2.657-1.953-4.181-0.281-1.524-0.117-3.003 0.49-4.439v0c0.576-1.362 1.372-2.313 2.388-2.85 1.014-0.532 2.08-0.562 3.199-0.089v0c0.882 0.373 1.585 0.989 2.111 1.85 0.517 0.864 0.804 1.845 0.862 2.945 0.061 1.094-0.144 2.197-0.615 3.31v0c-0.579 1.368-1.358 2.354-2.337 2.959v0c1.056 0.418 2.05 0.415 2.982-0.008 0.926-0.426 1.619-1.183 2.079-2.272v0c0.28-0.663 0.448-1.391 0.505-2.185 0.056-0.794-0.017-1.527-0.22-2.2v0c-0.134-0.429-0.143-0.781-0.028-1.055v0c0.098-0.231 0.25-0.389 0.458-0.473 0.208-0.084 0.427-0.078 0.658 0.02v0c0.499 0.211 0.973 0.92 1.423 2.129v0c0.817 2.138 0.783 4.252-0.102 6.344zM221.876 162.465v0c0.347-0.821 0.465-1.574 0.353-2.26-0.109-0.691-0.425-1.148-0.948-1.368v0c-0.432-0.183-0.843-0.142-1.235 0.123-0.391 0.265-0.721 0.713-0.988 1.345v0c-0.357 0.845-0.448 1.671-0.273 2.477 0.179 0.814 0.609 1.526 1.29 2.137v0c0.34-0.229 0.672-0.572 0.995-1.031 0.326-0.45 0.595-0.924 0.806-1.423z" fill="#ffffff" data-fill-palette-color="accent"></path><path d="M4.424 120.791c0-5.186 4.204-9.391 9.39-9.391 5.186 0 9.391 4.204 9.391 9.391 0 5.186-4.204 9.391-9.391 9.39-5.186 0-9.391-4.204-9.39-9.39z" fill="#ffffff" data-fill-palette-color="accent"></path><path d="M221.292 120.791c0-5.186 4.204-9.391 9.39-9.391 5.186 0 9.391 4.204 9.391 9.391 0 5.186-4.204 9.391-9.391 9.39-5.186 0-9.391-4.204-9.39-9.39z" fill="#ffffff" data-fill-palette-color="accent"></path></g><g id="text-1"></g></svg></g></svg></g></svg></g><defs></defs></svg><rect width="395.52" height="139.72877980504026" fill="none" stroke="none" visibility="hidden"></rect></g></svg></g></svg>